<svg xmlns="http://www.w3.org/2000/svg" xmlns:xlink="http://www.w3.org/1999/xlink" width="500" zoomAndPan="magnify" viewBox="0 0 375 374.999991" height="500" preserveAspectRatio="xMidYMid meet" version="1.0"><rect x="-37.5" width="450" fill="#ffffff" y="-37.499999" height="449.999989" fill-opacity="1"/><rect x="-37.5" width="450" fill="#ffffff" y="-37.499999" height="449.999989" fill-opacity="1"/><path fill="#7da2b0" d="M 305.023438 317.320312 L 305.023438 336.808594 C 305.023438 355.6875 289.695312 371.015625 270.726562 371.015625 L 106.871094 371.015625 C 87.902344 371.015625 72.574219 355.6875 72.574219 336.808594 L 72.574219 317.320312 L 305.023438 317.320312 " fill-opacity="1" fill-rule="nonzero"/><path fill="#9de7fc" d="M 305.023438 39.058594 L 305.023438 317.320312 L 72.574219 317.320312 L 72.574219 39.058594 C 72.574219 20.179688 87.902344 4.851562 106.871094 4.851562 L 270.726562 4.851562 C 289.695312 4.851562 305.023438 20.179688 305.023438 39.058594 " fill-opacity="1" fill-rule="nonzero"/><path fill="#ffc26d" d="M 203.433594 344.167969 C 203.433594 345.1875 203.335938 346.195312 203.136719 347.191406 C 202.9375 348.191406 202.644531 349.160156 202.253906 350.101562 C 201.867188 351.042969 201.386719 351.933594 200.824219 352.78125 C 200.257812 353.628906 199.613281 354.410156 198.894531 355.128906 C 198.175781 355.851562 197.390625 356.492188 196.546875 357.058594 C 195.699219 357.625 194.804688 358.101562 193.867188 358.492188 C 192.925781 358.878906 191.957031 359.175781 190.957031 359.371094 C 189.960938 359.570312 188.949219 359.671875 187.933594 359.671875 C 186.914062 359.671875 185.90625 359.570312 184.910156 359.371094 C 183.910156 359.175781 182.941406 358.878906 182 358.492188 C 181.058594 358.101562 180.167969 357.625 179.320312 357.058594 C 178.472656 356.492188 177.691406 355.851562 176.972656 355.128906 C 176.25 354.410156 175.609375 353.628906 175.042969 352.78125 C 174.476562 351.933594 174 351.042969 173.609375 350.101562 C 173.222656 349.160156 172.925781 348.191406 172.730469 347.191406 C 172.53125 346.195312 172.429688 345.1875 172.429688 344.167969 C 172.429688 343.152344 172.53125 342.140625 172.730469 341.144531 C 172.925781 340.144531 173.222656 339.175781 173.609375 338.234375 C 174 337.296875 174.476562 336.402344 175.042969 335.554688 C 175.609375 334.710938 176.25 333.925781 176.972656 333.207031 C 177.691406 332.488281 178.472656 331.84375 179.320312 331.277344 C 180.167969 330.714844 181.058594 330.234375 182 329.847656 C 182.941406 329.457031 183.910156 329.164062 184.910156 328.964844 C 185.90625 328.765625 186.914062 328.667969 187.933594 328.667969 C 188.949219 328.667969 189.960938 328.765625 190.957031 328.964844 C 191.957031 329.164062 192.925781 329.457031 193.867188 329.847656 C 194.804688 330.234375 195.699219 330.714844 196.546875 331.277344 C 197.390625 331.84375 198.175781 332.488281 198.894531 333.207031 C 199.613281 333.925781 200.257812 334.710938 200.824219 335.554688 C 201.386719 336.402344 201.867188 337.296875 202.253906 338.234375 C 202.644531 339.175781 202.9375 340.144531 203.136719 341.144531 C 203.335938 342.140625 203.433594 343.152344 203.433594 344.167969 Z M 203.433594 344.167969 " fill-opacity="1" fill-rule="nonzero"/><path fill="#7da2b0" d="M 212.183594 25.980469 L 162.644531 25.980469 C 157.1875 25.980469 152.25 23.035156 149.566406 18.273438 L 141.945312 4.417969 L 233.832031 4.417969 L 224.914062 18.878906 C 222.140625 23.296875 217.378906 25.980469 212.183594 25.980469 " fill-opacity="1" fill-rule="nonzero"/><path fill="#ff5633" d="M 262.671875 138.222656 L 190.097656 190.789062 L 117.4375 138.222656 L 190.097656 85.652344 Z M 262.671875 138.222656 " fill-opacity="1" fill-rule="nonzero"/><path fill="#fdd1a7" d="M 190.097656 257.910156 L 117.4375 195.902344 L 117.4375 138.222656 L 190.445312 190.789062 Z M 190.097656 257.910156 " fill-opacity="1" fill-rule="nonzero"/><path fill="#ffc26d" d="M 190.097656 257.910156 L 262.671875 199.882812 L 262.671875 138.222656 L 190.097656 190.789062 Z M 190.097656 257.910156 " fill-opacity="1" fill-rule="nonzero"/><path fill="#ff5633" d="M 54.042969 172.515625 L 29.878906 190.011719 L 5.714844 172.515625 L 29.878906 155.023438 L 54.042969 172.515625 " fill-opacity="1" fill-rule="nonzero"/><path fill="#fdd1a7" d="M 29.878906 212.355469 L 5.714844 191.742188 L 5.714844 172.515625 L 30.050781 190.011719 L 29.878906 212.355469 " fill-opacity="1" fill-rule="nonzero"/><path fill="#ffc26d" d="M 29.878906 212.355469 L 54.042969 193.042969 L 54.042969 172.515625 L 29.878906 190.011719 L 29.878906 212.355469 " fill-opacity="1" fill-rule="nonzero"/><path fill="#ff5633" d="M 370.148438 172.515625 L 345.902344 190.011719 L 321.738281 172.515625 L 345.902344 155.023438 L 370.148438 172.515625 " fill-opacity="1" fill-rule="nonzero"/><path fill="#fdd1a7" d="M 345.902344 212.355469 L 321.738281 191.742188 L 321.738281 172.515625 L 346.074219 190.011719 L 345.902344 212.355469 " fill-opacity="1" fill-rule="nonzero"/><path fill="#ffc26d" d="M 345.902344 212.355469 L 370.148438 193.042969 L 370.148438 172.515625 L 345.902344 190.011719 L 345.902344 212.355469 " fill-opacity="1" fill-rule="nonzero"/><path fill="#ffffff" d="M 350.492188 84.007812 L 322.257812 84.007812 L 350.492188 115.097656 L 350.492188 100.460938 L 338.191406 86.863281 L 350.492188 86.863281 L 350.492188 84.007812 " fill-opacity="1" fill-rule="nonzero"/><path fill="#ffac66" d="M 29.878906 155.023438 L 5.714844 172.515625 L 21.652344 183.949219 L 21.652344 175.375 L 39.839844 162.210938 L 29.878906 155.023438 " fill-opacity="1" fill-rule="nonzero"/><path fill="#ffffff" d="M 5.714844 172.515625 L 5.714844 191.742188 L 29.878906 212.355469 L 29.878906 201.703125 L 21.652344 194.601562 L 21.652344 183.949219 L 5.714844 172.515625 " fill-opacity="1" fill-rule="nonzero"/><path fill="#ffffda" d="M 29.878906 201.703125 L 29.878906 212.355469 L 36.375 207.160156 L 29.878906 201.703125 " fill-opacity="1" fill-rule="nonzero"/><path fill="#ffffff" d="M 58.113281 86 L 29.878906 86 L 29.878906 117.175781 L 45.8125 99.597656 L 45.8125 88.945312 L 55.515625 88.945312 L 58.113281 86 " fill-opacity="1" fill-rule="nonzero"/><path fill="#faffff" d="M 88.511719 317.320312 L 72.574219 317.320312 L 72.574219 336.808594 C 72.574219 355.6875 87.902344 371.015625 106.871094 371.015625 L 109.035156 371.015625 C 96.910156 365.734375 88.511719 353.695312 88.511719 339.664062 L 88.511719 317.320312 " fill-opacity="1" fill-rule="nonzero"/><path fill="#ffffff" d="M 142.207031 4.851562 L 106.871094 4.851562 C 87.902344 4.851562 72.574219 20.179688 72.574219 39.058594 L 72.574219 88.945312 L 74.046875 88.945312 L 72.574219 90.589844 L 72.574219 282.9375 L 74.046875 284.585938 L 72.574219 284.585938 L 72.574219 317.320312 L 88.511719 317.320312 L 88.511719 41.917969 C 88.511719 23.035156 103.839844 7.707031 122.804688 7.707031 L 143.765625 7.707031 L 142.207031 4.851562 M 270.726562 4.851562 L 233.574219 4.851562 L 232.015625 7.363281 L 249.769531 7.363281 L 249.507812 7.707031 L 284.410156 7.707031 C 280.253906 5.890625 275.664062 4.851562 270.8125 4.851562 C 270.8125 4.851562 270.726562 4.851562 270.726562 4.851562 " fill-opacity="1" fill-rule="nonzero"/><path fill="#faffff" d="M 233.832031 4.503906 L 141.945312 4.503906 L 142.207031 4.851562 L 143.765625 7.707031 L 158.140625 7.707031 L 157.882812 7.363281 L 232.015625 7.363281 L 233.574219 4.851562 L 233.832031 4.503906 " fill-opacity="1" fill-rule="nonzero"/><path fill="#ffffff" d="M 350.492188 248.554688 L 322.257812 279.648438 L 340.878906 279.648438 L 350.492188 268.996094 L 350.492188 248.554688 " fill-opacity="1" fill-rule="nonzero"/><path fill="#ffffff" d="M 29.878906 250.546875 L 29.878906 281.726562 L 45.8125 281.726562 L 45.8125 268.128906 L 29.878906 250.546875 " fill-opacity="1" fill-rule="nonzero"/><path fill="#ffffff" d="M 345.902344 155.023438 L 321.738281 172.515625 L 345.902344 155.023438 L 355.859375 162.210938 L 345.902344 155.023438 " fill-opacity="1" fill-rule="nonzero"/><path fill="#ffac66" d="M 345.902344 155.023438 L 321.738281 172.515625 L 337.671875 183.949219 L 337.671875 175.375 L 355.859375 162.210938 L 345.902344 155.023438 " fill-opacity="1" fill-rule="nonzero"/><path fill="#ffffff" d="M 321.738281 172.515625 L 321.738281 191.742188 L 345.902344 212.355469 L 345.902344 201.617188 L 337.671875 194.601562 L 337.671875 183.949219 L 321.738281 172.515625 " fill-opacity="1" fill-rule="nonzero"/><path fill="#ffffda" d="M 345.902344 201.617188 L 345.902344 212.355469 L 352.394531 207.160156 L 345.902344 201.617188 " fill-opacity="1" fill-rule="nonzero"/><path fill="#000000" d="M 106.871094 375.347656 L 270.726562 375.347656 C 292.03125 375.347656 309.351562 358.023438 309.351562 336.808594 L 309.351562 39.058594 C 309.351562 17.839844 292.03125 0.519531 270.726562 0.519531 L 235.132812 0.519531 L 233.832031 0.171875 L 142.03125 0.171875 L 140.734375 0.519531 L 106.957031 0.519531 C 85.652344 0.519531 68.332031 17.839844 68.332031 39.058594 L 68.332031 336.808594 C 68.246094 358.023438 85.566406 375.347656 106.871094 375.347656 Z M 225.867188 9.179688 L 221.1875 16.628906 C 219.285156 19.832031 215.90625 21.652344 212.183594 21.652344 L 162.644531 21.652344 C 158.832031 21.652344 155.28125 19.574219 153.378906 16.195312 L 149.480469 9.179688 Z M 76.90625 39.058594 C 76.90625 22.605469 90.328125 9.179688 106.871094 9.179688 L 139.605469 9.179688 L 145.84375 20.4375 C 149.21875 26.585938 155.714844 30.398438 162.644531 30.398438 L 212.183594 30.398438 C 218.9375 30.398438 225 27.019531 228.550781 21.304688 L 236 9.265625 L 270.726562 9.265625 C 287.269531 9.265625 300.691406 22.691406 300.691406 39.144531 L 300.691406 313.078125 L 76.90625 313.078125 Z M 76.90625 321.652344 L 300.691406 321.652344 L 300.691406 336.808594 C 300.691406 353.261719 287.269531 366.6875 270.726562 366.6875 L 106.871094 366.6875 C 90.328125 366.6875 76.90625 353.261719 76.90625 336.808594 Z M 76.90625 321.652344 " fill-opacity="1" fill-rule="nonzero"/><path fill="#000000" d="M 187.933594 364 C 198.84375 364 207.765625 355.082031 207.765625 344.167969 C 207.765625 333.257812 198.84375 324.335938 187.933594 324.335938 C 177.019531 324.335938 168.101562 333.257812 168.101562 344.167969 C 168.101562 355.082031 177.019531 364 187.933594 364 Z M 187.933594 332.996094 C 194.082031 332.996094 199.105469 338.019531 199.105469 344.167969 C 199.105469 350.316406 194.082031 355.339844 187.933594 355.339844 C 181.785156 355.339844 176.761719 350.316406 176.761719 344.167969 C 176.761719 338.019531 181.785156 332.996094 187.933594 332.996094 Z M 187.933594 332.996094 " fill-opacity="1" fill-rule="nonzero"/><path fill="#000000" d="M 29.878906 121.507812 C 32.304688 121.507812 34.210938 119.601562 34.210938 117.175781 L 34.210938 90.414062 L 58.113281 90.414062 C 60.535156 90.414062 62.441406 88.511719 62.441406 86.085938 C 62.441406 83.660156 60.535156 81.753906 58.113281 81.753906 L 29.878906 81.753906 C 27.453125 81.753906 25.546875 83.660156 25.546875 86.085938 L 25.546875 117.175781 C 25.546875 119.515625 27.453125 121.507812 29.878906 121.507812 Z M 29.878906 121.507812 " fill-opacity="1" fill-rule="nonzero"/><path fill="#000000" d="M 29.878906 246.21875 C 27.453125 246.21875 25.546875 248.125 25.546875 250.546875 L 25.546875 281.640625 C 25.546875 284.066406 27.453125 285.96875 29.878906 285.96875 L 58.113281 285.96875 C 60.535156 285.96875 62.441406 284.066406 62.441406 281.640625 C 62.441406 279.214844 60.535156 277.308594 58.113281 277.308594 L 34.210938 277.308594 L 34.210938 250.546875 C 34.210938 248.210938 32.304688 246.21875 29.878906 246.21875 Z M 29.878906 246.21875 " fill-opacity="1" fill-rule="nonzero"/><path fill="#000000" d="M 322.257812 88.335938 L 346.160156 88.335938 L 346.160156 115.097656 C 346.160156 117.523438 348.066406 119.429688 350.492188 119.429688 C 352.914062 119.429688 354.820312 117.523438 354.820312 115.097656 L 354.820312 84.007812 C 354.820312 81.582031 352.914062 79.675781 350.492188 79.675781 L 322.257812 79.675781 C 319.832031 79.675781 317.925781 81.582031 317.925781 84.007812 C 317.925781 86.433594 319.917969 88.335938 322.257812 88.335938 Z M 322.257812 88.335938 " fill-opacity="1" fill-rule="nonzero"/><path fill="#000000" d="M 346.160156 248.554688 L 346.160156 275.316406 L 322.257812 275.316406 C 319.832031 275.316406 317.925781 277.222656 317.925781 279.648438 C 317.925781 282.074219 319.832031 283.976562 322.257812 283.976562 L 350.492188 283.976562 C 352.914062 283.976562 354.820312 282.074219 354.820312 279.648438 L 354.820312 248.554688 C 354.820312 246.132812 352.914062 244.226562 350.492188 244.226562 C 348.066406 244.226562 346.160156 246.132812 346.160156 248.554688 Z M 346.160156 248.554688 " fill-opacity="1" fill-rule="nonzero"/><path fill="#000000" d="M 27.105469 215.648438 L 27.800781 216.078125 L 27.972656 216.253906 L 28.148438 216.253906 L 29.878906 216.597656 L 31.699219 216.253906 L 32.128906 215.820312 L 32.5625 215.648438 L 56.726562 196.332031 C 57.765625 195.554688 58.371094 194.253906 58.371094 192.957031 L 58.371094 172.429688 L 57.765625 170.351562 L 57.332031 169.832031 L 56.554688 168.964844 L 32.390625 151.472656 C 30.917969 150.347656 28.839844 150.347656 27.28125 151.472656 L 3.117188 168.964844 L 2.339844 169.832031 L 1.90625 170.351562 L 1.300781 172.429688 L 1.300781 191.65625 C 1.300781 192.957031 1.820312 194.167969 2.859375 194.949219 Z M 49.710938 190.964844 L 34.210938 203.347656 L 34.296875 192.175781 L 49.710938 181.003906 Z M 29.878906 160.304688 L 46.679688 172.429688 L 29.964844 184.554688 L 13.078125 172.429688 Z M 10.046875 181.003906 L 25.546875 192.261719 L 25.546875 203.003906 L 10.046875 189.75 Z M 10.046875 181.003906 " fill-opacity="1" fill-rule="nonzero"/><path fill="#000000" d="M 343.128906 215.648438 L 343.910156 216.078125 L 344.082031 216.253906 L 344.253906 216.253906 L 345.988281 216.597656 L 347.804688 216.253906 L 348.238281 215.820312 L 348.671875 215.648438 L 372.835938 196.332031 C 373.875 195.554688 374.480469 194.253906 374.480469 192.957031 L 374.480469 172.429688 L 373.875 170.351562 L 373.441406 169.832031 L 372.75 168.964844 L 348.585938 151.472656 C 347.027344 150.347656 345.035156 150.347656 343.476562 151.472656 L 319.3125 168.964844 L 318.535156 169.832031 L 318.101562 170.351562 L 317.496094 172.429688 L 317.496094 191.65625 C 317.496094 192.957031 318.015625 194.167969 318.964844 194.949219 Z M 365.820312 190.964844 L 350.316406 203.347656 L 350.402344 192.175781 L 365.820312 181.003906 Z M 345.902344 160.304688 L 362.703125 172.429688 L 345.988281 184.554688 L 329.097656 172.429688 Z M 326.066406 181.003906 L 341.570312 192.261719 L 341.570312 203.003906 L 326.066406 189.75 Z M 326.066406 181.003906 " fill-opacity="1" fill-rule="nonzero"/><path fill="#000000" d="M 285.796875 158.746094 C 283.371094 158.746094 281.464844 160.652344 281.464844 163.078125 L 281.464844 168.1875 L 267.089844 168.1875 L 267.089844 138.222656 L 266.484375 136.144531 L 266.050781 135.625 L 265.359375 134.757812 L 192.695312 82.273438 C 191.222656 81.148438 189.144531 81.148438 187.585938 82.273438 L 114.925781 134.757812 L 114.144531 135.625 L 113.710938 136.144531 L 113.105469 138.222656 L 113.105469 168.1875 L 94.398438 168.1875 L 94.398438 163.078125 C 94.398438 160.652344 92.496094 158.746094 90.070312 158.746094 C 87.644531 158.746094 85.738281 160.652344 85.738281 163.078125 L 85.738281 181.957031 C 85.738281 184.382812 87.644531 186.289062 90.070312 186.289062 C 92.496094 186.289062 94.398438 184.382812 94.398438 181.957031 L 94.398438 176.847656 L 113.191406 176.847656 L 113.191406 195.902344 C 113.191406 197.199219 113.710938 198.414062 114.75 199.191406 L 187.414062 261.199219 L 188.105469 261.632812 L 188.28125 261.808594 L 188.453125 261.808594 L 190.183594 262.152344 L 192.003906 261.808594 L 192.4375 261.375 L 192.871094 261.199219 L 265.53125 203.175781 C 266.570312 202.394531 267.175781 201.097656 267.175781 199.796875 L 267.175781 176.761719 L 281.554688 176.761719 L 281.554688 181.871094 C 281.554688 184.296875 283.457031 186.199219 285.882812 186.199219 C 288.308594 186.199219 290.214844 184.296875 290.214844 181.871094 L 290.214844 162.992188 C 290.128906 160.652344 288.136719 158.746094 285.796875 158.746094 Z M 190.097656 91.023438 L 255.3125 138.222656 L 213.914062 168.1875 L 166.453125 168.1875 L 124.796875 138.222656 Z M 121.765625 146.710938 L 151.472656 168.1875 L 121.765625 168.1875 Z M 185.769531 248.554688 L 121.765625 193.910156 L 121.765625 176.847656 L 163.421875 176.847656 L 185.769531 193.042969 Z M 190.269531 185.335938 L 178.492188 176.847656 L 201.964844 176.847656 Z M 258.34375 197.804688 L 194.429688 248.902344 L 194.773438 192.78125 L 216.773438 176.847656 L 258.429688 176.847656 L 258.429688 197.804688 Z M 258.34375 168.1875 L 228.636719 168.1875 L 258.34375 146.710938 Z M 258.34375 168.1875 " fill-opacity="1" fill-rule="nonzero"/><path fill="#000000" d="M 94.226562 72.316406 L 97.691406 72.316406 L 97.691406 75.433594 C 97.691406 77.859375 99.597656 79.761719 102.019531 79.761719 C 104.445312 79.761719 106.351562 77.859375 106.351562 75.433594 L 106.351562 72.316406 L 109.816406 72.316406 C 112.238281 72.316406 114.144531 70.410156 114.144531 67.984375 C 114.144531 65.558594 112.238281 63.65625 109.816406 63.65625 L 106.351562 63.65625 L 106.351562 60.535156 C 106.351562 58.113281 104.445312 56.207031 102.019531 56.207031 C 99.597656 56.207031 97.691406 58.113281 97.691406 60.535156 L 97.691406 63.65625 L 94.226562 63.65625 C 91.800781 63.65625 89.894531 65.558594 89.894531 67.984375 C 89.894531 70.410156 91.800781 72.316406 94.226562 72.316406 Z M 94.226562 72.316406 " fill-opacity="1" fill-rule="nonzero"/><path fill="#000000" d="M 285.796875 93.878906 L 282.332031 93.878906 L 282.332031 90.761719 C 282.332031 88.335938 280.425781 86.433594 278.003906 86.433594 C 275.578125 86.433594 273.671875 88.335938 273.671875 90.761719 L 273.671875 93.878906 L 270.207031 93.878906 C 267.78125 93.878906 265.878906 95.785156 265.878906 98.210938 C 265.878906 100.636719 267.78125 102.539062 270.207031 102.539062 L 273.671875 102.539062 L 273.671875 105.65625 C 273.671875 108.082031 275.578125 109.988281 278.003906 109.988281 C 280.425781 109.988281 282.332031 108.082031 282.332031 105.65625 L 282.332031 102.539062 L 285.796875 102.539062 C 288.222656 102.539062 290.128906 100.636719 290.128906 98.210938 C 290.128906 95.785156 288.136719 93.878906 285.796875 93.878906 Z M 285.796875 93.878906 " fill-opacity="1" fill-rule="nonzero"/><path fill="#000000" d="M 115.53125 257.390625 L 112.066406 257.390625 L 112.066406 254.273438 C 112.066406 251.847656 110.160156 249.941406 107.738281 249.941406 C 105.3125 249.941406 103.40625 251.847656 103.40625 254.273438 L 103.40625 257.390625 L 99.941406 257.390625 C 97.515625 257.390625 95.613281 259.296875 95.613281 261.71875 C 95.613281 264.144531 97.515625 266.050781 99.941406 266.050781 L 103.40625 266.050781 L 103.40625 269.167969 C 103.40625 271.59375 105.3125 273.5 107.738281 273.5 C 110.160156 273.5 112.066406 271.59375 112.066406 269.167969 L 112.066406 266.050781 L 115.53125 266.050781 C 117.957031 266.050781 119.863281 264.144531 119.863281 261.71875 C 119.863281 259.296875 117.957031 257.390625 115.53125 257.390625 Z M 115.53125 257.390625 " fill-opacity="1" fill-rule="nonzero"/><path fill="#000000" d="M 277.914062 261.808594 L 274.453125 261.808594 L 274.453125 258.6875 C 274.453125 256.265625 272.546875 254.359375 270.121094 254.359375 C 267.695312 254.359375 265.789062 256.265625 265.789062 258.6875 L 265.789062 261.808594 L 262.328125 261.808594 C 259.902344 261.808594 257.996094 263.710938 257.996094 266.136719 C 257.996094 268.5625 259.902344 270.46875 262.328125 270.46875 L 265.789062 270.46875 L 265.789062 273.585938 C 265.789062 276.011719 267.695312 277.914062 270.121094 277.914062 C 272.546875 277.914062 274.453125 276.011719 274.453125 273.585938 L 274.453125 270.46875 L 277.914062 270.46875 C 280.339844 270.46875 282.246094 268.5625 282.246094 266.136719 C 282.246094 263.710938 280.339844 261.808594 277.914062 261.808594 Z M 277.914062 261.808594 " fill-opacity="1" fill-rule="nonzero"/><path fill="#000000" d="M 127.050781 103.578125 C 135.449219 103.578125 135.449219 90.589844 127.050781 90.589844 C 118.648438 90.589844 118.648438 103.578125 127.050781 103.578125 Z M 127.050781 103.578125 " fill-opacity="1" fill-rule="nonzero"/><path fill="#000000" d="M 237.730469 77.339844 C 246.132812 77.339844 246.132812 64.347656 237.730469 64.347656 C 229.332031 64.347656 229.332031 77.339844 237.730469 77.339844 Z M 237.730469 77.339844 " fill-opacity="1" fill-rule="nonzero"/><path fill="#000000" d="M 278.433594 223.179688 C 270.035156 223.179688 270.035156 236.171875 278.433594 236.171875 C 286.835938 236.171875 286.835938 223.179688 278.433594 223.179688 Z M 278.433594 223.179688 " fill-opacity="1" fill-rule="nonzero"/><path fill="#000000" d="M 158.3125 259.382812 C 150 259.382812 149.914062 272.371094 158.3125 272.371094 C 166.628906 272.371094 166.628906 259.382812 158.3125 259.382812 Z M 158.3125 259.382812 " fill-opacity="1" fill-rule="nonzero"/><path fill="#000000" d="M 106.699219 213.222656 C 98.296875 213.222656 98.296875 226.210938 106.699219 226.210938 C 115.011719 226.210938 115.011719 213.222656 106.699219 213.222656 Z M 106.699219 213.222656 " fill-opacity="1" fill-rule="nonzero"/></svg>