<svg xmlns="http://www.w3.org/2000/svg" xmlns:xlink="http://www.w3.org/1999/xlink" width="500" zoomAndPan="magnify" viewBox="0 0 375 374.999991" height="500" preserveAspectRatio="xMidYMid meet" version="1.0"><rect x="-37.5" width="450" fill="#ffffff" y="-37.499999" height="449.999989" fill-opacity="1"/><rect x="-37.5" width="450" fill="#ffffff" y="-37.499999" height="449.999989" fill-opacity="1"/><path fill="#edf4fe" d="M 257.515625 331.226562 C 259.480469 331.226562 261.335938 330.335938 262.566406 328.796875 C 263.792969 327.265625 264.253906 325.253906 263.820312 323.335938 C 263.015625 319.796875 262.597656 316.113281 262.597656 312.328125 C 262.597656 284.882812 284.882812 262.597656 312.328125 262.597656 C 316.113281 262.597656 319.796875 263.015625 323.335938 263.820312 C 325.253906 264.253906 327.265625 263.792969 328.796875 262.566406 C 330.335938 261.335938 331.226562 259.480469 331.226562 257.515625 L 331.226562 56.722656 C 331.226562 25.398438 305.832031 0 274.507812 0 L 56.722656 0 C 25.398438 0 0 25.398438 0 56.722656 L 0 274.507812 C 0 305.832031 25.398438 331.226562 56.722656 331.226562 Z M 257.515625 331.226562 " fill-opacity="1" fill-rule="evenodd"/><path fill="#f8bc38" d="M 132.289062 95.910156 C 132.289062 97.101562 132.234375 98.289062 132.117188 99.476562 C 132 100.660156 131.824219 101.839844 131.59375 103.007812 C 131.359375 104.175781 131.070312 105.332031 130.722656 106.46875 C 130.378906 107.609375 129.976562 108.730469 129.523438 109.832031 C 129.066406 110.933594 128.558594 112.007812 127.996094 113.058594 C 127.433594 114.109375 126.820312 115.132812 126.160156 116.121094 C 125.496094 117.113281 124.789062 118.070312 124.03125 118.988281 C 123.277344 119.910156 122.476562 120.792969 121.636719 121.636719 C 120.792969 122.476562 119.910156 123.277344 118.988281 124.03125 C 118.070312 124.789062 117.113281 125.496094 116.121094 126.160156 C 115.132812 126.820312 114.109375 127.433594 113.058594 127.996094 C 112.007812 128.558594 110.933594 129.066406 109.832031 129.523438 C 108.730469 129.976562 107.609375 130.378906 106.46875 130.722656 C 105.332031 131.070312 104.175781 131.359375 103.007812 131.59375 C 101.839844 131.824219 100.660156 132 99.476562 132.117188 C 98.289062 132.234375 97.101562 132.289062 95.910156 132.289062 C 94.71875 132.289062 93.527344 132.234375 92.34375 132.117188 C 91.15625 132 89.980469 131.824219 88.8125 131.59375 C 87.644531 131.359375 86.488281 131.070312 85.347656 130.722656 C 84.207031 130.378906 83.085938 129.976562 81.988281 129.523438 C 80.886719 129.066406 79.808594 128.558594 78.757812 127.996094 C 77.707031 127.433594 76.6875 126.820312 75.695312 126.160156 C 74.707031 125.496094 73.75 124.789062 72.828125 124.03125 C 71.910156 123.277344 71.027344 122.476562 70.183594 121.636719 C 69.339844 120.792969 68.542969 119.910156 67.785156 118.988281 C 67.03125 118.070312 66.320312 117.113281 65.660156 116.121094 C 64.996094 115.132812 64.386719 114.109375 63.824219 113.058594 C 63.261719 112.007812 62.753906 110.933594 62.296875 109.832031 C 61.839844 108.730469 61.441406 107.609375 61.09375 106.46875 C 60.75 105.332031 60.460938 104.175781 60.226562 103.007812 C 59.996094 101.839844 59.820312 100.660156 59.703125 99.476562 C 59.585938 98.289062 59.527344 97.101562 59.527344 95.910156 C 59.527344 94.71875 59.585938 93.527344 59.703125 92.34375 C 59.820312 91.15625 59.996094 89.980469 60.226562 88.8125 C 60.460938 87.644531 60.75 86.488281 61.09375 85.347656 C 61.441406 84.207031 61.839844 83.085938 62.296875 81.988281 C 62.753906 80.886719 63.261719 79.808594 63.824219 78.757812 C 64.386719 77.707031 64.996094 76.6875 65.660156 75.695312 C 66.320312 74.707031 67.03125 73.75 67.785156 72.828125 C 68.542969 71.910156 69.339844 71.027344 70.183594 70.183594 C 71.027344 69.339844 71.910156 68.542969 72.828125 67.785156 C 73.75 67.03125 74.707031 66.320312 75.695312 65.660156 C 76.6875 64.996094 77.707031 64.386719 78.757812 63.824219 C 79.808594 63.261719 80.886719 62.753906 81.988281 62.296875 C 83.085938 61.839844 84.207031 61.441406 85.347656 61.09375 C 86.488281 60.75 87.644531 60.460938 88.8125 60.226562 C 89.980469 59.996094 91.15625 59.820312 92.34375 59.703125 C 93.527344 59.585938 94.71875 59.527344 95.910156 59.527344 C 97.101562 59.527344 98.289062 59.585938 99.476562 59.703125 C 100.660156 59.820312 101.839844 59.996094 103.007812 60.226562 C 104.175781 60.460938 105.332031 60.75 106.46875 61.09375 C 107.609375 61.441406 108.730469 61.839844 109.832031 62.296875 C 110.933594 62.753906 112.007812 63.261719 113.058594 63.824219 C 114.109375 64.386719 115.132812 64.996094 116.121094 65.660156 C 117.113281 66.320312 118.070312 67.03125 118.988281 67.785156 C 119.910156 68.542969 120.792969 69.339844 121.636719 70.183594 C 122.476562 71.027344 123.277344 71.910156 124.03125 72.828125 C 124.789062 73.75 125.496094 74.707031 126.160156 75.695312 C 126.820312 76.6875 127.433594 77.707031 127.996094 78.757812 C 128.558594 79.808594 129.066406 80.886719 129.523438 81.988281 C 129.976562 83.085938 130.378906 84.207031 130.722656 85.347656 C 131.070312 86.488281 131.359375 87.644531 131.59375 88.8125 C 131.824219 89.980469 132 91.15625 132.117188 92.34375 C 132.234375 93.527344 132.289062 94.71875 132.289062 95.910156 Z M 132.289062 95.910156 " fill-opacity="1" fill-rule="nonzero"/><path fill="#00912c" d="M 257.515625 331.226562 C 259.480469 331.226562 261.335938 330.335938 262.566406 328.796875 C 263.792969 327.265625 264.253906 325.253906 263.820312 323.335938 C 263.015625 319.796875 262.597656 316.113281 262.597656 312.328125 C 262.597656 284.882812 284.882812 262.597656 312.328125 262.597656 C 313.601562 262.597656 314.859375 262.640625 316.105469 262.738281 C 318.613281 262.925781 321.007812 261.640625 322.234375 259.441406 C 323.464844 257.242188 323.300781 254.527344 321.820312 252.492188 L 281.449219 196.886719 C 270.78125 182.191406 253.714844 173.496094 235.550781 173.496094 C 217.382812 173.496094 200.320312 182.191406 189.648438 196.886719 C 189.648438 196.886719 128.164062 281.574219 128.164062 281.574219 C 126.523438 283.84375 126.523438 286.90625 128.164062 289.171875 L 156.761719 328.566406 C 157.976562 330.238281 159.925781 331.226562 161.992188 331.226562 Z M 257.515625 331.226562 " fill-opacity="1" fill-rule="evenodd"/><path fill="#008127" d="M 141.386719 263.367188 L 128.164062 281.574219 C 126.523438 283.84375 126.523438 286.90625 128.164062 289.171875 L 156.761719 328.566406 C 157.976562 330.238281 159.925781 331.226562 161.992188 331.226562 L 180.285156 331.226562 C 182.390625 325.261719 181.472656 318.574219 177.691406 313.363281 Z M 141.386719 263.367188 " fill-opacity="1" fill-rule="evenodd"/><path fill="#00bf4b" d="M 1.234375 263.753906 C 0.433594 264.859375 0 266.183594 0 267.550781 L 0 274.507812 C 0 305.832031 25.398438 331.226562 56.722656 331.226562 L 161.992188 331.226562 C 164.425781 331.226562 166.65625 329.863281 167.753906 327.699219 C 168.859375 325.53125 168.660156 322.933594 167.230469 320.960938 L 109.363281 241.261719 C 98.691406 226.566406 81.628906 217.867188 63.464844 217.867188 C 45.296875 217.867188 28.234375 226.566406 17.558594 241.261719 C 17.558594 241.261719 1.234375 263.753906 1.234375 263.753906 Z M 1.234375 263.753906 " fill-opacity="1" fill-rule="evenodd"/><path fill="#444a6e" d="M 375 312.328125 C 375 314.382812 374.898438 316.429688 374.699219 318.472656 C 374.496094 320.515625 374.195312 322.542969 373.796875 324.554688 C 373.394531 326.570312 372.898438 328.558594 372.300781 330.523438 C 371.707031 332.484375 371.015625 334.417969 370.230469 336.3125 C 369.445312 338.207031 368.566406 340.0625 367.601562 341.871094 C 366.632812 343.683594 365.578125 345.441406 364.4375 347.148438 C 363.296875 348.855469 362.078125 350.5 360.773438 352.085938 C 359.472656 353.675781 358.09375 355.191406 356.644531 356.644531 C 355.191406 358.09375 353.675781 359.472656 352.085938 360.773438 C 350.5 362.078125 348.855469 363.296875 347.148438 364.4375 C 345.441406 365.578125 343.683594 366.632812 341.871094 367.601562 C 340.0625 368.566406 338.207031 369.445312 336.3125 370.230469 C 334.417969 371.015625 332.484375 371.707031 330.523438 372.300781 C 328.558594 372.898438 326.570312 373.394531 324.554688 373.796875 C 322.542969 374.195312 320.515625 374.496094 318.472656 374.699219 C 316.429688 374.898438 314.382812 375 312.328125 375 C 310.277344 375 308.230469 374.898438 306.1875 374.699219 C 304.144531 374.496094 302.117188 374.195312 300.101562 373.796875 C 298.089844 373.394531 296.101562 372.898438 294.136719 372.300781 C 292.171875 371.707031 290.242188 371.015625 288.347656 370.230469 C 286.449219 369.445312 284.597656 368.566406 282.789062 367.601562 C 280.976562 366.632812 279.21875 365.578125 277.511719 364.4375 C 275.804688 363.296875 274.160156 362.078125 272.570312 360.773438 C 270.984375 359.472656 269.464844 358.09375 268.015625 356.644531 C 266.5625 355.191406 265.1875 353.675781 263.886719 352.085938 C 262.582031 350.5 261.363281 348.855469 260.222656 347.148438 C 259.082031 345.441406 258.027344 343.683594 257.058594 341.871094 C 256.09375 340.0625 255.214844 338.207031 254.429688 336.3125 C 253.644531 334.417969 252.953125 332.484375 252.359375 330.523438 C 251.761719 328.558594 251.265625 326.570312 250.863281 324.554688 C 250.464844 322.542969 250.164062 320.515625 249.960938 318.472656 C 249.761719 316.429688 249.660156 314.382812 249.660156 312.328125 C 249.660156 310.277344 249.761719 308.230469 249.960938 306.1875 C 250.164062 304.144531 250.464844 302.117188 250.863281 300.101562 C 251.265625 298.089844 251.761719 296.101562 252.359375 294.136719 C 252.953125 292.171875 253.644531 290.242188 254.429688 288.347656 C 255.214844 286.449219 256.09375 284.597656 257.058594 282.789062 C 258.027344 280.976562 259.082031 279.21875 260.222656 277.511719 C 261.363281 275.804688 262.582031 274.160156 263.886719 272.570312 C 265.1875 270.984375 266.5625 269.464844 268.015625 268.015625 C 269.464844 266.5625 270.984375 265.1875 272.570312 263.886719 C 274.160156 262.582031 275.804688 261.363281 277.511719 260.222656 C 279.21875 259.082031 280.976562 258.027344 282.789062 257.058594 C 284.597656 256.09375 286.449219 255.214844 288.347656 254.429688 C 290.242188 253.644531 292.171875 252.953125 294.136719 252.359375 C 296.101562 251.761719 298.089844 251.265625 300.101562 250.863281 C 302.117188 250.464844 304.144531 250.164062 306.1875 249.960938 C 308.230469 249.761719 310.277344 249.660156 312.328125 249.660156 C 314.382812 249.660156 316.429688 249.761719 318.472656 249.960938 C 320.515625 250.164062 322.542969 250.464844 324.554688 250.863281 C 326.570312 251.265625 328.558594 251.761719 330.523438 252.359375 C 332.484375 252.953125 334.417969 253.644531 336.3125 254.429688 C 338.207031 255.214844 340.0625 256.09375 341.871094 257.058594 C 343.683594 258.027344 345.441406 259.082031 347.148438 260.222656 C 348.855469 261.363281 350.5 262.582031 352.085938 263.886719 C 353.675781 265.1875 355.191406 266.5625 356.644531 268.015625 C 358.09375 269.464844 359.472656 270.984375 360.773438 272.570312 C 362.078125 274.160156 363.296875 275.804688 364.4375 277.511719 C 365.578125 279.21875 366.632812 280.976562 367.601562 282.789062 C 368.566406 284.597656 369.445312 286.449219 370.230469 288.347656 C 371.015625 290.242188 371.707031 292.171875 372.300781 294.136719 C 372.898438 296.101562 373.394531 298.089844 373.796875 300.101562 C 374.195312 302.117188 374.496094 304.144531 374.699219 306.1875 C 374.898438 308.230469 375 310.277344 375 312.328125 Z M 375 312.328125 " fill-opacity="1" fill-rule="nonzero"/><path fill="#00013f" d="M 294.492188 165.613281 L 294.492188 152.683594 C 294.492188 150.898438 293.042969 149.449219 291.257812 149.449219 C 289.472656 149.449219 288.027344 150.898438 288.027344 152.683594 L 288.027344 165.613281 C 288.027344 167.398438 289.472656 168.847656 291.257812 168.847656 C 293.042969 168.847656 294.492188 167.398438 294.492188 165.613281 Z M 294.492188 139.753906 L 294.492188 126.820312 C 294.492188 125.035156 293.042969 123.589844 291.257812 123.589844 C 289.472656 123.589844 288.027344 125.035156 288.027344 126.820312 L 288.027344 139.753906 C 288.027344 141.535156 289.472656 142.984375 291.257812 142.984375 C 293.042969 142.984375 294.492188 141.535156 294.492188 139.753906 Z M 294.492188 113.890625 L 294.492188 100.960938 C 294.492188 99.175781 293.042969 97.726562 291.257812 97.726562 C 289.472656 97.726562 288.027344 99.175781 288.027344 100.960938 L 288.027344 113.890625 C 288.027344 115.675781 289.472656 117.121094 291.257812 117.121094 C 293.042969 117.121094 294.492188 115.675781 294.492188 113.890625 Z M 294.492188 88.027344 L 294.492188 75.867188 C 294.492188 75.589844 294.484375 75.308594 294.484375 75.027344 C 294.445312 73.246094 292.964844 71.824219 291.179688 71.863281 C 289.398438 71.902344 287.980469 73.382812 288.019531 75.167969 C 288.027344 75.402344 288.027344 75.632812 288.027344 75.867188 L 288.027344 88.027344 C 288.027344 89.8125 289.472656 91.261719 291.257812 91.261719 C 293.042969 91.261719 294.492188 89.8125 294.492188 88.027344 Z M 291.683594 61.285156 C 289.914062 56.882812 287.367188 52.875 284.210938 49.429688 C 283.003906 48.117188 280.960938 48.027344 279.640625 49.234375 C 278.328125 50.4375 278.238281 52.488281 279.441406 53.800781 C 282.078125 56.675781 284.203125 60.019531 285.683594 63.699219 C 286.351562 65.351562 288.234375 66.160156 289.886719 65.496094 C 291.542969 64.828125 292.351562 62.949219 291.683594 61.285156 Z M 273.046875 40.953125 C 268.925781 38.863281 264.394531 37.480469 259.597656 36.964844 C 257.824219 36.777344 256.226562 38.054688 256.039062 39.835938 C 255.847656 41.605469 257.132812 43.203125 258.90625 43.390625 C 262.90625 43.824219 266.691406 44.980469 270.117188 46.71875 C 271.714844 47.527344 273.660156 46.886719 274.46875 45.296875 C 275.269531 43.707031 274.636719 41.761719 273.046875 40.953125 Z M 220.46875 36.738281 L 207.535156 36.738281 C 205.753906 36.738281 204.304688 38.183594 204.304688 39.96875 C 204.304688 41.753906 205.753906 43.203125 207.535156 43.203125 L 220.46875 43.203125 C 222.253906 43.203125 223.699219 41.753906 223.699219 39.96875 C 223.699219 38.183594 222.253906 36.738281 220.46875 36.738281 Z M 246.328125 36.738281 L 233.398438 36.738281 C 231.613281 36.738281 230.164062 38.183594 230.164062 39.96875 C 230.164062 41.753906 231.613281 43.203125 233.398438 43.203125 L 246.328125 43.203125 C 248.113281 43.203125 249.5625 41.753906 249.5625 39.96875 C 249.5625 38.183594 248.113281 36.738281 246.328125 36.738281 Z M 194.605469 36.738281 L 181.675781 36.738281 C 179.890625 36.738281 178.441406 38.183594 178.441406 39.96875 C 178.441406 41.753906 179.890625 43.203125 181.675781 43.203125 L 194.605469 43.203125 C 196.390625 43.203125 197.839844 41.753906 197.839844 39.96875 C 197.839844 38.183594 196.390625 36.738281 194.605469 36.738281 Z M 163.753906 38.8125 C 162.925781 37.914062 162.382812 38.878906 162.382812 39.96875 C 162.382812 41.753906 163.828125 43.203125 165.613281 43.203125 L 168.742188 43.203125 C 170.527344 43.203125 171.976562 41.753906 171.976562 39.96875 C 171.976562 38.183594 170.527344 36.738281 168.742188 36.738281 L 165.648438 36.738281 C 164.023438 36.738281 163.621094 37.660156 163.753906 38.8125 Z M 163.753906 38.8125 " fill-opacity="1" fill-rule="evenodd"/><path fill="#00013f" d="M 95.910156 59.535156 C 75.835938 59.535156 59.535156 75.835938 59.535156 95.910156 C 59.535156 115.992188 75.835938 132.289062 95.910156 132.289062 C 115.992188 132.289062 132.289062 115.992188 132.289062 95.910156 C 132.289062 75.835938 115.992188 59.535156 95.910156 59.535156 Z M 95.910156 72.464844 C 108.851562 72.464844 119.359375 82.972656 119.359375 95.910156 C 119.359375 108.851562 108.851562 119.359375 95.910156 119.359375 C 82.972656 119.359375 72.464844 108.851562 72.464844 95.910156 C 72.464844 82.972656 82.972656 72.464844 95.910156 72.464844 Z M 95.910156 72.464844 " fill-opacity="1" fill-rule="evenodd"/><path fill="#00013f" d="M 1.234375 263.753906 C 0.433594 264.859375 0 266.183594 0 267.550781 L 0 274.507812 C 0 305.832031 25.398438 331.226562 56.722656 331.226562 L 161.992188 331.226562 C 164.425781 331.226562 166.65625 329.863281 167.753906 327.699219 C 168.859375 325.53125 168.660156 322.933594 167.230469 320.960938 L 109.363281 241.261719 C 98.691406 226.566406 81.628906 217.867188 63.464844 217.867188 C 45.296875 217.867188 28.234375 226.566406 17.558594 241.261719 C 17.558594 241.261719 1.234375 263.753906 1.234375 263.753906 Z M 12.929688 269.652344 L 28.027344 248.859375 C 36.265625 237.511719 49.441406 230.800781 63.464844 230.800781 C 77.484375 230.800781 90.660156 237.511719 98.898438 248.859375 C 98.898438 248.859375 149.316406 318.296875 149.316406 318.296875 C 149.316406 318.296875 56.722656 318.296875 56.722656 318.296875 C 32.535156 318.296875 12.929688 298.695312 12.929688 274.507812 Z M 12.929688 269.652344 " fill-opacity="1" fill-rule="evenodd"/><path fill="#00013f" d="M 312.328125 249.664062 C 277.746094 249.664062 249.664062 277.746094 249.664062 312.328125 C 249.664062 346.921875 277.746094 375 312.328125 375 C 346.921875 375 375 346.921875 375 312.328125 C 375 277.746094 346.921875 249.664062 312.328125 249.664062 Z M 312.328125 262.597656 C 339.78125 262.597656 362.070312 284.882812 362.070312 312.328125 C 362.070312 339.78125 339.78125 362.070312 312.328125 362.070312 C 284.882812 362.070312 262.597656 339.78125 262.597656 312.328125 C 262.597656 284.882812 284.882812 262.597656 312.328125 262.597656 Z M 312.328125 262.597656 " fill-opacity="1" fill-rule="evenodd"/><path fill="#00013f" d="M 257.515625 331.226562 C 259.480469 331.226562 261.335938 330.335938 262.566406 328.796875 C 263.792969 327.265625 264.253906 325.253906 263.820312 323.335938 C 263.015625 319.796875 262.597656 316.113281 262.597656 312.328125 C 262.597656 284.882812 284.882812 262.597656 312.328125 262.597656 C 313.601562 262.597656 314.859375 262.640625 316.105469 262.738281 C 318.613281 262.925781 321.007812 261.640625 322.234375 259.441406 C 323.464844 257.242188 323.300781 254.527344 321.820312 252.492188 L 281.449219 196.886719 C 270.78125 182.191406 253.714844 173.496094 235.550781 173.496094 C 217.382812 173.496094 200.320312 182.191406 189.648438 196.886719 C 189.648438 196.886719 128.164062 281.574219 128.164062 281.574219 C 126.523438 283.84375 126.523438 286.90625 128.164062 289.171875 L 156.761719 328.566406 C 157.976562 330.238281 159.925781 331.226562 161.992188 331.226562 Z M 304.171875 250.195312 C 273.433594 254.199219 249.664062 280.511719 249.664062 312.328125 C 249.664062 314.347656 249.761719 316.332031 249.945312 318.296875 L 249.949219 318.296875 L 165.289062 318.296875 C 165.289062 318.296875 141.386719 285.375 141.386719 285.375 C 141.386719 285.375 200.113281 204.484375 200.113281 204.484375 C 208.351562 193.136719 221.527344 186.425781 235.550781 186.425781 C 249.574219 186.425781 262.746094 193.136719 270.988281 204.484375 Z M 304.171875 250.195312 " fill-opacity="1" fill-rule="evenodd"/><path fill="#00013f" d="M 257.515625 331.226562 C 259.480469 331.226562 261.335938 330.335938 262.566406 328.796875 C 263.792969 327.265625 264.253906 325.253906 263.820312 323.335938 C 263.015625 319.796875 262.597656 316.113281 262.597656 312.328125 C 262.597656 284.882812 284.882812 262.597656 312.328125 262.597656 C 316.113281 262.597656 319.796875 263.015625 323.335938 263.820312 C 325.253906 264.253906 327.265625 263.792969 328.796875 262.566406 C 330.335938 261.335938 331.226562 259.480469 331.226562 257.515625 L 331.226562 56.722656 C 331.226562 25.398438 305.832031 0 274.507812 0 L 56.722656 0 C 25.398438 0 0 25.398438 0 56.722656 L 0 274.507812 C 0 305.832031 25.398438 331.226562 56.722656 331.226562 Z M 249.949219 318.296875 L 56.722656 318.296875 C 32.535156 318.296875 12.929688 298.695312 12.929688 274.507812 L 12.929688 56.722656 C 12.929688 32.535156 32.535156 12.929688 56.722656 12.929688 L 274.507812 12.929688 C 298.695312 12.929688 318.296875 32.535156 318.296875 56.722656 C 318.296875 56.722656 318.296875 249.949219 318.296875 249.949219 C 316.332031 249.761719 314.347656 249.664062 312.328125 249.664062 C 277.746094 249.664062 249.664062 277.746094 249.664062 312.328125 C 249.664062 314.347656 249.761719 316.332031 249.945312 318.296875 Z M 249.949219 318.296875 " fill-opacity="1" fill-rule="evenodd"/><path fill="#00013f" d="M 318.796875 334.964844 L 318.796875 289.707031 C 318.796875 286.136719 315.898438 283.234375 312.328125 283.234375 C 308.765625 283.242188 305.863281 286.136719 305.863281 289.707031 L 305.863281 334.964844 C 305.863281 338.527344 308.765625 341.425781 312.328125 341.425781 C 315.898438 341.429688 318.796875 338.527344 318.796875 334.964844 Z M 318.796875 334.964844 " fill-opacity="1" fill-rule="evenodd"/><path fill="#00013f" d="M 298.175781 314.554688 L 312.328125 299.230469 C 312.335938 299.230469 326.488281 314.554688 326.488281 314.554688 C 328.90625 317.179688 333 317.339844 335.625 314.914062 C 338.242188 312.496094 338.40625 308.40625 335.988281 305.78125 L 317.082031 285.316406 C 315.859375 283.992188 314.132812 283.242188 312.335938 283.234375 C 310.53125 283.234375 308.804688 283.992188 307.585938 285.316406 L 288.679688 305.78125 C 286.261719 308.40625 286.421875 312.496094 289.039062 314.914062 C 291.664062 317.339844 295.757812 317.179688 298.175781 314.554688 Z M 298.175781 314.554688 " fill-opacity="1" fill-rule="evenodd"/></svg>